<?xml version="1.0" standalone="no"?>
<!DOCTYPE svg PUBLIC "-//W3C//DTD SVG 20010904//EN"
 "http://www.w3.org/TR/2001/REC-SVG-20010904/DTD/svg10.dtd">
<svg version="1.0" xmlns="http://www.w3.org/2000/svg"
 width="512.000000pt" height="512.000000pt" viewBox="0 0 512.000000 512.000000"
 preserveAspectRatio="xMidYMid meet">

<g transform="translate(0.000000,512.000000) scale(0.100000,-0.100000)"
fill="#000000" stroke="none">
<path d="M2428 5020 c-408 -38 -693 -240 -886 -625 -126 -252 -208 -543 -326
-1160 -31 -159 -61 -314 -67 -342 l-10 -53 -132 0 c-106 0 -140 -4 -172 -19
-51 -23 -111 -89 -124 -138 -6 -21 -11 -129 -11 -243 l0 -204 -84 -141 c-46
-77 -154 -252 -240 -390 -285 -455 -376 -682 -376 -934 0 -141 54 -277 141
-355 97 -87 264 -150 433 -161 125 -9 144 -13 151 -35 11 -33 55 -80 99 -103
l41 -22 1695 0 1695 0 41 22 c44 23 88 70 99 103 7 22 26 26 151 35 45 3 117
14 160 25 307 78 439 267 407 583 -16 155 -51 267 -138 442 -93 186 -302 525
-337 544 -34 20 -82 0 -98 -39 -15 -35 -17 -30 122 -255 112 -181 193 -325
184 -325 -3 0 -31 16 -63 37 -71 45 -204 108 -292 138 l-66 22 -5 624 c-5 677
-3 655 -63 718 -56 59 -95 71 -243 71 -128 0 -132 1 -137 23 -3 12 -29 144
-57 292 -119 623 -191 902 -295 1140 -100 229 -245 435 -307 435 -41 0 -72
-32 -72 -72 0 -27 11 -48 45 -89 161 -191 271 -457 372 -899 60 -259 61 -253
-29 -120 -209 308 -476 485 -823 544 -109 18 -371 22 -471 5 -181 -29 -339
-85 -478 -171 -122 -76 -278 -232 -375 -378 -42 -62 -77 -108 -77 -100 0 28
72 334 111 471 95 336 202 544 363 705 178 177 373 248 676 248 213 0 301 -19
521 -117 42 -19 75 -7 99 36 13 24 13 30 0 55 -30 54 -210 129 -377 156 -117
20 -268 26 -375 16z m272 -1060 c182 -19 351 -74 474 -152 l51 -33 -130 -6
c-191 -9 -324 -51 -406 -129 -37 -35 -38 -35 -129 -35 l-92 0 -38 36 c-81 78
-213 119 -405 128 l-130 6 71 43 c198 119 463 170 734 142z m-510 -362 c82
-20 145 -56 161 -92 15 -33 -5 -155 -36 -216 -45 -90 -126 -135 -260 -146
-240 -20 -395 114 -395 341 0 58 2 65 28 83 85 60 325 75 502 30z m1154 6 c32
-8 71 -23 87 -35 27 -19 29 -25 29 -84 0 -227 -155 -361 -395 -341 -103 8
-162 32 -217 87 -50 51 -71 102 -84 212 -6 56 -6 58 30 91 86 82 359 116 550
70z m-730 -156 c2 -7 9 -46 15 -86 28 -180 137 -303 312 -349 83 -21 244 -22
323 0 l58 16 -7 -47 c-4 -26 -11 -68 -17 -94 l-10 -48 -193 0 -194 0 -20 -26
c-34 -43 -26 -86 20 -109 24 -13 127 -15 675 -15 l648 0 23 -22 23 -21 0
-1029 0 -1029 -25 -24 -24 -25 -771 0 c-757 0 -770 0 -790 -20 -30 -30 -27
-83 6 -109 26 -21 33 -21 815 -21 l789 0 0 -49 c0 -33 -6 -56 -19 -72 l-19
-24 -1666 -3 -1667 -2 -24 24 c-20 20 -25 35 -25 75 l0 51 794 2 c765 3 795 4
815 22 27 25 28 79 1 106 -20 20 -33 20 -790 20 l-771 0 -24 25 -25 24 0 1027
0 1028 22 23 21 23 819 0 819 0 -7 -22 c-3 -13 -76 -238 -160 -502 -85 -263
-154 -491 -154 -507 0 -16 9 -38 20 -49 19 -19 33 -20 225 -20 157 0 205 -3
205 -12 0 -7 -56 -188 -125 -402 -69 -215 -125 -397 -125 -407 0 -9 8 -27 19
-40 22 -27 83 -32 106 -8 19 19 305 907 305 946 0 18 -9 38 -21 49 -19 17 -43
20 -228 24 l-207 5 163 505 c89 278 163 513 163 523 0 10 -11 29 -25 42 l-24
25 -415 0 -414 0 -10 48 c-6 26 -13 68 -17 94 l-7 47 58 -16 c79 -22 240 -21
323 0 175 46 284 169 312 349 6 40 13 79 15 86 2 7 22 12 54 12 32 0 52 -5 54
-12z m-1060 -177 c9 -24 29 -62 45 -85 22 -33 32 -68 50 -176 12 -74 25 -143
27 -152 5 -17 -9 -18 -185 -18 -105 0 -191 2 -191 4 0 9 70 185 100 251 51
113 121 238 130 228 4 -4 15 -28 24 -52z m2131 -106 c52 -105 135 -303 135
-321 0 -2 -86 -4 -191 -4 -176 0 -190 1 -185 18 2 9 15 78 27 152 18 108 28
143 51 177 15 23 32 53 38 67 35 90 30 83 46 61 8 -11 44 -78 79 -150z m-2985
-1480 c0 -235 -1 -256 -17 -262 -103 -35 -229 -89 -244 -104 -24 -24 -25 -81
-1 -101 33 -30 56 -29 138 6 43 19 89 37 101 40 l22 7 3 -358 c3 -308 5 -362
19 -388 16 -28 15 -32 -2 -65 -11 -19 -19 -42 -19 -52 0 -14 -8 -16 -57 -12
-293 25 -433 102 -480 263 -12 43 -14 79 -10 156 10 172 55 308 169 512 58
103 370 612 376 613 1 0 2 -115 2 -255z m3856 -467 c181 -78 329 -201 382
-317 33 -71 40 -168 18 -242 -46 -161 -187 -238 -478 -263 -50 -4 -58 -2 -58
12 0 10 -8 33 -19 52 -17 33 -18 37 -2 65 14 26 16 80 19 388 l3 358 22 -6
c12 -4 63 -25 113 -47z"/>
</g>
</svg>
